<?xml version="1.0" encoding="UTF-8"?>
<svg id="_все_на_купу" data-name="все на купу" xmlns="http://www.w3.org/2000/svg" viewBox="0 0 67.6 23.85">
  <defs>
    <style>
      .cls-1 {
        fill: #333722;
      }
    </style>
  </defs>
  <g id="logo">
    <path class="cls-1" d="M59.26,1.08c.09.08.19.19.29.34.1.15.15.24.13.27l-1.46,2.8s-.02.03-.07,0-.06-.05-.05-.07l1.04-3.37s.05-.02.12.03Z"/>
    <g>
      <path class="cls-1" d="M3.73,19.49c0,.46.05.8.14,1.01.1.21.27.35.53.42.26.07.67.11,1.25.11h2.62c.91,0,1.64-.28,2.18-.84.54-.56.9-1.34,1.08-2.33,0-.05.04-.07.13-.06.09,0,.13.04.13.08-.14,1.33-.22,2.42-.22,3.29,0,.13-.02.22-.07.28-.05.06-.14.08-.29.08H.13s-.05-.05-.05-.14.02-.14.05-.14c.61,0,1.05-.04,1.33-.12.28-.08.47-.24.56-.47.1-.23.14-.59.14-1.07v-11.11c0-.48-.05-.83-.14-1.06-.1-.22-.28-.38-.56-.47-.28-.09-.72-.13-1.33-.13-.03,0-.05-.05-.05-.14s.02-.14.05-.14l1.18.02c.67.03,1.22.05,1.63.05.45,0,1.01-.02,1.68-.05l1.15-.02s.07.05.07.14-.02.14-.07.14c-.59,0-1.03.04-1.31.13-.28.09-.47.25-.58.48-.1.23-.16.59-.16,1.07v10.99Z"/>
      <path class="cls-1" d="M23.72,6.82s-.07-.05-.07-.14.02-.14.07-.14l1.03.02c.58.03,1.03.05,1.37.05.27,0,.66-.02,1.18-.05l1.85-.02s.05.05.05.14-.02.14-.05.14c-1.28,0-2.76.78-2.76,2.35v6.82c0,1.84-.51,3.28-1.54,4.31-1.02,1.03-2.4,1.55-4.13,1.55-1.18,0-2.22-.23-3.11-.7-.89-.46-1.58-1.12-2.06-1.98-.49-.86-.73-1.86-.73-3.01v-7.68c0-.48-.05-.83-.14-1.06-.1-.22-.28-.38-.56-.47-.28-.09-.72-.13-1.33-.13-.03,0-.05-.05-.05-.14s.02-.14.05-.14l1.18.02c.67.03,1.22.05,1.63.05.45,0,1.01-.02,1.68-.05l1.15-.02s.07.05.07.14-.02.14-.07.14c-.59,0-1.03.05-1.32.14-.29.1-.48.26-.58.49-.1.23-.14.59-.14,1.07v6.79c0,1.87.43,3.31,1.28,4.31.86,1,2.05,1.5,3.59,1.5,1.44,0,2.56-.45,3.36-1.36.8-.9,1.2-2.16,1.2-3.76v-6.84c0-1.57-.7-2.35-2.09-2.35Z"/>
      <path class="cls-1" d="M48.32,21.39c0,.1-.02.14-.07.14-.5,0-.89,0-1.18-.02l-1.66-.02-1.54.02c-.26.02-.62.02-1.08.02-.03,0-.05-.05-.05-.14s.02-.14.05-.14c.54,0,.95-.04,1.21-.13s.44-.24.53-.47c.09-.22.12-.58.08-1.06l-.43-10.92-5.47,12.7c-.03.06-.1.1-.19.1-.08,0-.15-.03-.22-.1l-5.9-12.55-.22,10.1c-.02.85.13,1.45.43,1.8.3.35.84.53,1.61.53.03,0,.05.05.05.14s-.02.14-.05.14c-.45,0-.79,0-1.03-.02l-1.3-.02-1.25.02c-.22.02-.54.02-.96.02-.03,0-.05-.05-.05-.14s.02-.14.05-.14c.67,0,1.16-.18,1.45-.54.3-.36.45-.96.47-1.79l.22-11.14c-.48-.64-1.85-.96-2.69-.96-.03,0-.05-.05-.05-.14s.02-.14.05-.14l1.61.02c.16.02.38.02.67.02s.53,0,.73-.02c.2-.02.36-.02.47-.02.21,0,.38.08.52.23.14.15.33.49.59,1.02l5.35,11.28,5.23-11.93c.18-.4.42-.6.72-.6.08,0,.2,0,.35.02.15.02.36.02.61.02l1.13-.02c.18-.02.44-.02.79-.02.05,0,.07.05.07.14s-.02.14-.07.14c-.8,0-1.37.12-1.72.35-.34.23-.51.67-.49,1.31l.48,11.11c.02.5.08.86.18,1.08.1.22.29.38.56.46.27.08.71.12,1.32.12.05,0,.07.05.07.14Z"/>
      <path class="cls-1" d="M53.71,20.78c-1.16-.7-2.06-1.64-2.69-2.83-.63-1.19-.95-2.49-.95-3.9,0-1.65.42-3.06,1.25-4.24.83-1.18,1.9-2.06,3.2-2.65,1.3-.59,2.64-.89,4-.89,1.52,0,2.86.36,4.01,1.07,1.15.71,2.04,1.65,2.65,2.82.62,1.17.92,2.41.92,3.72,0,1.46-.38,2.79-1.15,4.01-.77,1.22-1.8,2.18-3.08,2.88-1.29.7-2.68,1.06-4.19,1.06s-2.81-.35-3.97-1.04ZM61.46,20.53c.87-.53,1.56-1.3,2.06-2.33s.76-2.24.76-3.65c0-1.5-.28-2.84-.84-4.01-.56-1.17-1.35-2.08-2.36-2.74-1.02-.66-2.2-.98-3.56-.98-1.76,0-3.14.57-4.13,1.7s-1.49,2.7-1.49,4.68c0,1.5.28,2.88.84,4.12.56,1.24,1.34,2.22,2.35,2.93,1.01.71,2.15,1.07,3.43,1.07,1.09,0,2.07-.26,2.94-.79Z"/>
    </g>
  </g>
</svg>